PathFileType	4	(X/Y/Z)	OpenSim_Sub10_CSBaseline_Gyro.trc
DataRate	CameraRate	NumFrames	NumMarkers	Units	OrigDataRate	OrigDataStartFrame	OrigNumFrames
100	100	16	8	m	100	6834	9111
Frame#	Time	torso_imu_offset_imu	pelvis_imu_offset_imu	tibia_r_imu_offset_imu	femur_r_imu_offset_imu	tibia_l_imu_offset_imu	femur_l_imu_offset_imu	toes_r_imu_offset_imu	toes_l_imu_offset_imu
				X1	Y1	Z1	X2	Y2	Z2	X3	Y3	Z3	X4	Y4	Z4	X5	Y5	Z5	X6	Y6	Z6	X7	Y7	Z7	X8		Y8	Z8	

6834	68.33000000	0.25780075	-0.17202436	0.04357865	0.01869556	-0.01200506	-0.10091388	-0.20420881	0.03021393	-0.28313573	0.43788900	0.04069599	-1.19486492	0.20878741	0.76554377	-5.92413025	-0.46023038	-0.16933848	0.13507044	0.01163739	-0.02549197	-0.09967646	1.15224913	4.83155582	-1.06901227
6835	68.34000000	0.16376282	-0.16419950	0.01578833	-0.04082725	-0.06672329	-0.07301192	-0.08068007	0.02217502	-0.37575181	0.47316250	-0.02289072	-1.14964891	0.07332355	0.98198406	-5.77177754	-0.28016746	-0.23041336	0.32762017	0.02380975	-0.02963167	-0.11918844	0.55475289	4.64478980	-1.27503724
6836	68.35000000	0.08424062	-0.13071165	0.03446654	-0.11125238	-0.10485981	-0.04452754	0.00401410	0.00737347	-0.46903119	0.48384036	-0.08491331	-1.08943123	-0.62514175	1.07419539	-5.45708983	-0.12557662	-0.23404852	0.47052166	0.01972527	-0.03691743	-0.13645132	-0.06305966	4.84079844	-1.67672439
6837	68.36000000	0.01770012	-0.11584113	0.05352283	-0.19290400	-0.12413555	-0.02202747	-0.01683922	0.00639725	-0.52457878	0.44460034	-0.13086086	-1.00581206	-1.30881902	0.97208452	-4.94792661	0.03741595	-0.21957651	0.68448341	0.04763556	-0.04979003	-0.16071725	0.02581556	5.00314423	-2.21164942
6838	68.37000000	-0.04940605	-0.11051109	0.05499203	-0.27310068	-0.09984285	0.00117662	-0.06565537	0.03566233	-0.60815289	0.34361101	-0.14300844	-0.91832667	-1.75950151	0.99013278	-4.44163272	0.13248761	-0.16389807	0.86497146	0.01543944	-0.04133094	-0.16374751	0.11415992	4.98497322	-2.68168479
6839	68.38000000	-0.10376037	-0.11345514	0.05117086	-0.32563422	-0.06780806	0.01472169	-0.04191497	0.03739240	-0.72310937	0.21210759	-0.13766614	-0.84343889	-2.01180289	1.20956603	-4.06795763	0.15553623	-0.09108437	1.02810996	0.02766322	-0.05160707	-0.18930646	-0.23005242	4.73711474	-2.93517026
6840	68.39000000	-0.17881971	-0.09305130	0.03336252	-0.32757326	-0.06041267	0.02022090	-0.00471717	0.05190765	-0.85104534	0.11235224	-0.12507415	-0.78398692	-1.88990416	1.41410483	-3.72649705	0.15588562	-0.01447755	1.15177264	0.01924062	-0.07617967	-0.20325737	-0.37237355	4.37367203	-2.99226830
6841	68.40000000	-0.23308722	-0.06103025	0.01874685	-0.31697672	-0.09655374	0.03363138	0.01515686	0.06753947	-0.91465739	0.01734144	-0.10858132	-0.72725240	-1.66300927	1.34735424	-3.29266209	0.18852540	0.08237870	1.17725308	0.03781793	-0.12421565	-0.20770625	-0.52636325	3.95636951	-2.88704453
6842	68.41000000	-0.28212149	-0.02000698	0.00506354	-0.31190955	-0.14822231	0.03877296	0.05956977	0.06163047	-0.97149042	-0.07065931	-0.08455619	-0.66735162	-1.36567799	1.01736743	-2.78759222	0.18959431	0.20070264	1.15492733	0.01697423	-0.14844866	-0.19965206	-0.83518203	3.48099700	-2.66528344
6843	68.42000000	-0.31645578	0.00794146	-0.01729198	-0.29578703	-0.19895104	0.03333642	0.09042617	0.09545470	-1.03656783	-0.14565370	-0.02864659	-0.61261743	-1.16529317	0.65615485	-2.24072581	0.18817124	0.09598461	0.92633324	-0.03913066	-0.20638197	-0.20090197	-1.06528336	2.93077533	-2.38801703
6844	68.43000000	-0.33431727	0.02903936	-0.03237700	-0.26553928	-0.22919377	0.02178145	0.11830108	0.10891881	-1.11091232	-0.19829701	0.01498071	-0.56520564	-1.05784346	0.33022109	-1.63456738	0.19727444	-0.17548680	0.54962125	-0.03800027	-0.27650159	-0.20830255	-1.11596967	2.33611738	-2.07784301
6845	68.44000000	-0.34291563	0.03054965	-0.06317068	-0.21267654	-0.23160025	0.01293370	0.08145596	0.11152543	-1.16233088	-0.24065630	0.02992431	-0.52410510	-0.77696255	0.00739331	-0.97180577	-0.03419985	-0.40194354	0.18385222	-0.06283221	-0.34651317	-0.24332627	-0.81028096	1.72456056	-1.74507292
6846	68.45000000	-0.34300471	0.03219721	-0.09192922	-0.14108762	-0.22219317	0.00494989	-0.05172628	0.10477739	-1.18254764	-0.28314529	0.01226615	-0.48167683	-0.21442478	-0.23424162	-0.28310560	-0.40584907	-0.40543912	-0.16931243	-0.05184544	-0.43819343	-0.30183727	-0.04133171	1.10671190	-1.42586799
6847	68.46000000	-0.33419710	0.05337602	-0.09352227	-0.07555040	-0.20824438	-0.02433373	-0.25554738	0.08880978	-1.21026930	-0.32967723	-0.00867298	-0.45153490	0.18723207	-0.38525241	0.37586743	-0.61963644	-0.34294637	-0.38046108	-0.09442916	-0.53220002	-0.30400874	0.63111305	0.43126611	-1.08181077
6848	68.47000000	-0.30828675	0.06266998	-0.08799585	-0.04426083	-0.20012243	-0.05107467	-0.43934737	0.11162093	-1.25958463	-0.38484985	-0.02323471	-0.44704181	0.35154657	-0.58372968	0.91780961	-0.69774137	-0.32938523	-0.54273367	-0.11558697	-0.63294317	-0.31478518	0.58884390	-0.15051439	-0.71503044
6849	68.48000000	-0.26381660	0.09830854	-0.07691990	-0.06226554	-0.19728853	-0.08029146	-0.56727666	0.13632162	-1.32651430	-0.46215214	-0.04399599	-0.44737858	0.38098023	-0.80999564	1.35800817	-0.62443034	-0.29208282	-0.62800909	-0.10336112	-0.73977670	-0.32969776	0.20265718	-0.62925624	-0.38696775
